<svg xmlns="http://www.w3.org/2000/svg" xmlns:xlink="http://www.w3.org/1999/xlink" width="500" zoomAndPan="magnify" viewBox="0 0 375 374.999991" height="500" preserveAspectRatio="xMidYMid meet" version="1.0"><defs><g/></defs><rect x="-37.5" width="450" fill="#ffffff" y="-37.499999" height="449.999989" fill-opacity="1"/><rect x="-37.5" width="450" fill="#ffffff" y="-37.499999" height="449.999989" fill-opacity="1"/><path stroke-linecap="butt" transform="matrix(3.726209, 0, 0, 3.726209, 0.0000045, 4.955769)" fill="none" stroke-linejoin="miter" d="M 70.143976 54.675342 L 81.806509 66.337875 L 70.143976 78.000408 L 23.262166 78.000408 L 23.262166 61.572223 L 38.488979 45.783512 L 30.546925 45.783512 L 18.884392 34.120979 L 30.546925 22.458446 L 77.447605 22.458446 L 77.447605 39.119357 L 62.298367 54.675342 Z M 24.289517 61.97897 L 24.289517 76.643885 L 76.188575 23.640948 L 61.658894 23.640948 Z M 61.193441 23.640948 L 31.262926 23.640948 L 41.666429 34.043404 L 51.100239 34.043404 Z M 20.395017 34.120979 L 30.876096 44.504565 L 41.259682 34.120979 L 30.876096 23.718524 Z M 24.676346 76.817906 L 39.206028 76.817906 L 76.420254 38.635035 L 76.420254 23.97012 Z M 31.262926 44.757209 L 40.716653 44.757209 L 50.790985 34.353706 L 41.666429 34.353706 Z M 69.678523 55.856796 L 60.070693 55.856796 L 50.073936 66.105148 L 80.063157 66.105148 Z M 69.678523 76.817906 L 80.063157 66.570601 L 49.686059 66.570601 L 39.690351 76.817906 Z M 69.678523 76.817906 " stroke="#ffffff" stroke-width="1.289514" stroke-opacity="1" stroke-miterlimit="4"/><g fill="#ffffff" fill-opacity="1"><g transform="translate(81.627262, 295.600042)"><g><path d="M 179.765625 -86.921875 L 223.234375 -43.46875 L 179.765625 0 L 5.03125 0 L 5.03125 -61.203125 L 61.796875 -120.046875 L 32.234375 -120.046875 L -11.234375 -163.5 L 32.234375 -206.96875 L 206.96875 -206.96875 L 206.96875 -144.875 L 150.5 -86.921875 Z M 8.875 -59.71875 L 8.875 -5.03125 L 202.234375 -202.53125 L 148.125 -202.53125 Z M 146.359375 -202.53125 L 34.890625 -202.53125 L 73.625 -163.796875 L 108.8125 -163.796875 Z M -5.625 -163.5 L 33.40625 -124.78125 L 72.140625 -163.5 L 33.40625 -202.234375 Z M 10.34375 -4.4375 L 64.453125 -4.4375 L 203.125 -146.65625 L 203.125 -201.359375 Z M 34.890625 -123.890625 L 70.078125 -123.890625 L 107.625 -162.625 L 73.625 -162.625 Z M 178 -82.5 L 142.21875 -82.5 L 104.96875 -44.34375 L 216.734375 -44.34375 Z M 178 -4.4375 L 216.734375 -42.578125 L 103.484375 -42.578125 L 66.234375 -4.4375 Z M 178 -4.4375 "/></g></g></g></svg>